<?xml version="1.0" encoding="utf-8"?>
<!-- Generator: Adobe Illustrator 16.0.0, SVG Export Plug-In . SVG Version: 6.00 Build 0)  -->
<!DOCTYPE svg PUBLIC "-//W3C//DTD SVG 1.1//EN" "http://www.w3.org/Graphics/SVG/1.1/DTD/svg11.dtd">
<svg version="1.1" id="Layer_1" xmlns="http://www.w3.org/2000/svg" xmlns:xlink="http://www.w3.org/1999/xlink" x="0px" y="0px"
	 width="512px" height="512px" viewBox="0 0 512 512" enable-background="new 0 0 512 512" xml:space="preserve">
<path d="M112,177.75V144C112,64.594,176.594,0,256,0s144,64.594,144,144v33.75c-11.844,2.438-22.688,7.5-32,14.563V144
	c0-61.75-50.25-112-112-112S144,82.25,144,144v48.313C134.688,185.25,123.859,180.188,112,177.75z M416,192v64v96
	c0,88.375-71.625,160-160,160S96,440.375,96,352v-96v-64c35.344,0,64,28.656,64,64h192C352,220.656,380.656,192,416,192z M288,352
	c0-17.688-14.313-32-32-32s-32,14.313-32,32c0,11.719,6.625,21.531,16,27.094V432c0,8.844,7.156,16,16,16s16-7.156,16-16v-52.906
	C281.375,373.531,288,363.719,288,352z"/>
</svg>
